<svg width="20" height="20" viewBox="0 0 20 20" fill="none" xmlns="http://www.w3.org/2000/svg">
<path d="M5.25358 11.6387L5.96068 10.9316C6.15595 10.7363 6.47253 10.7363 6.66779 10.9316L9.84977 14.1136L17.2744 6.68896C17.4697 6.49369 17.7862 6.49369 17.9815 6.68896L18.6886 7.39606C18.8839 7.59132 18.8839 7.90791 18.6886 8.10317L10.2033 16.5885C10.0081 16.7837 9.69148 16.7837 9.49622 16.5885L5.25358 12.3458C5.05832 12.1505 5.05832 11.834 5.25358 11.6387Z" fill="#42D03C"/>
<path fill-rule="evenodd" clip-rule="evenodd" d="M10 20C15.5228 20 20 15.5228 20 10C20 4.47715 15.5228 0 10 0C4.47715 0 0 4.47715 0 10C0 15.5228 4.47715 20 10 20Z" fill="#D9F1C7"/>
<path d="M4.94021 10.229L5.47054 9.69868C5.61699 9.55223 5.85443 9.55223 6.00087 9.69868L8.38736 12.0852L13.9558 6.5167C14.1023 6.37025 14.3397 6.37025 14.4862 6.5167L15.0165 7.04703C15.1629 7.19347 15.1629 7.43091 15.0165 7.57736L8.65252 13.9413C8.50608 14.0878 8.26864 14.0878 8.12219 13.9413L4.94021 10.7593C4.79377 10.6129 4.79377 10.3755 4.94021 10.229Z" fill="#42D03C"/>
</svg>
